<mxfile host="app.diagrams.net" modified="2020-12-01T20:16:06.593Z" agent="5.0 (Windows NT 10.0; Win64; x64) AppleWebKit/537.36 (KHTML, like Gecko) Chrome/87.0.4280.66 Safari/537.36" etag="UEz5NvVMpD05hL2402-B" version="13.10.5" type="github">
  <diagram id="o9DZN1rCWmNZCqfXimZ9" name="Page-1">
    <mxGraphModel dx="1422" dy="762" grid="1" gridSize="10" guides="1" tooltips="1" connect="1" arrows="1" fold="1" page="1" pageScale="1" pageWidth="1100" pageHeight="850" math="0" shadow="0">
      <root>
        <mxCell id="0" />
        <mxCell id="1" parent="0" />
        <mxCell id="FS-ftZHQTLlanms4jddn-35" value="" style="rounded=1;whiteSpace=wrap;html=1;sketch=1;fillColor=none;strokeColor=#7EA6E0;" vertex="1" parent="1">
          <mxGeometry x="350" y="530" width="500" height="100" as="geometry" />
        </mxCell>
        <mxCell id="FS-ftZHQTLlanms4jddn-27" value="" style="rounded=1;whiteSpace=wrap;html=1;sketch=1;fillColor=none;strokeColor=#FFB570;" vertex="1" parent="1">
          <mxGeometry x="460" y="150" width="290" height="100" as="geometry" />
        </mxCell>
        <mxCell id="FS-ftZHQTLlanms4jddn-1" value="AI model" style="whiteSpace=wrap;html=1;fillColor=#e1d5e7;strokeColor=#9673a6;" vertex="1" parent="1">
          <mxGeometry x="890" y="310" width="120" height="60" as="geometry" />
        </mxCell>
        <mxCell id="FS-ftZHQTLlanms4jddn-7" value="" style="edgeStyle=orthogonalEdgeStyle;orthogonalLoop=1;jettySize=auto;html=1;" edge="1" parent="1" source="FS-ftZHQTLlanms4jddn-3" target="FS-ftZHQTLlanms4jddn-6">
          <mxGeometry relative="1" as="geometry" />
        </mxCell>
        <mxCell id="FS-ftZHQTLlanms4jddn-3" value="PPG and ACC data &lt;br&gt;from field" style="shape=parallelogram;perimeter=parallelogramPerimeter;whiteSpace=wrap;fixedSize=1;html=1;fillColor=#d5e8d4;strokeColor=#82b366;" vertex="1" parent="1">
          <mxGeometry x="150" y="310" width="150" height="60" as="geometry" />
        </mxCell>
        <mxCell id="FS-ftZHQTLlanms4jddn-11" value="" style="edgeStyle=orthogonalEdgeStyle;orthogonalLoop=1;jettySize=auto;html=1;" edge="1" parent="1" source="FS-ftZHQTLlanms4jddn-6" target="FS-ftZHQTLlanms4jddn-10">
          <mxGeometry relative="1" as="geometry" />
        </mxCell>
        <mxCell id="FS-ftZHQTLlanms4jddn-19" value="" style="edgeStyle=orthogonalEdgeStyle;orthogonalLoop=1;jettySize=auto;html=1;" edge="1" parent="1" source="FS-ftZHQTLlanms4jddn-6" target="FS-ftZHQTLlanms4jddn-18">
          <mxGeometry relative="1" as="geometry" />
        </mxCell>
        <mxCell id="FS-ftZHQTLlanms4jddn-39" style="edgeStyle=orthogonalEdgeStyle;rounded=0;orthogonalLoop=1;jettySize=auto;html=1;exitX=0.5;exitY=0;exitDx=0;exitDy=0;entryX=0;entryY=0.5;entryDx=0;entryDy=0;fontColor=#0066CC;" edge="1" parent="1" source="FS-ftZHQTLlanms4jddn-6" target="FS-ftZHQTLlanms4jddn-24">
          <mxGeometry relative="1" as="geometry">
            <Array as="points">
              <mxPoint x="490" y="200" />
            </Array>
          </mxGeometry>
        </mxCell>
        <mxCell id="FS-ftZHQTLlanms4jddn-6" value="exclude macro-motion data based on ACC" style="shape=process;whiteSpace=wrap;backgroundOutline=1;html=1;fillColor=#d5e8d4;strokeColor=#82b366;" vertex="1" parent="1">
          <mxGeometry x="400" y="310" width="180" height="60" as="geometry" />
        </mxCell>
        <mxCell id="FS-ftZHQTLlanms4jddn-46" style="edgeStyle=orthogonalEdgeStyle;rounded=0;orthogonalLoop=1;jettySize=auto;html=1;exitX=1;exitY=0.5;exitDx=0;exitDy=0;entryX=0;entryY=0.5;entryDx=0;entryDy=0;strokeColor=#000000;fontColor=#EA6B66;" edge="1" parent="1" source="FS-ftZHQTLlanms4jddn-10" target="FS-ftZHQTLlanms4jddn-15">
          <mxGeometry relative="1" as="geometry" />
        </mxCell>
        <mxCell id="FS-ftZHQTLlanms4jddn-10" value="exclude micro-motion data based on ACCÂ " style="shape=process;whiteSpace=wrap;backgroundOutline=1;html=1;fillColor=#dae8fc;strokeColor=#6c8ebf;" vertex="1" parent="1">
          <mxGeometry x="400" y="550" width="180" height="60" as="geometry" />
        </mxCell>
        <mxCell id="FS-ftZHQTLlanms4jddn-17" value="" style="edgeStyle=orthogonalEdgeStyle;orthogonalLoop=1;jettySize=auto;entryX=0.5;entryY=1;entryDx=0;entryDy=0;html=1;" edge="1" parent="1" source="FS-ftZHQTLlanms4jddn-15" target="FS-ftZHQTLlanms4jddn-1">
          <mxGeometry relative="1" as="geometry" />
        </mxCell>
        <mxCell id="FS-ftZHQTLlanms4jddn-15" value="PPG data &lt;br&gt;with sitting only" style="shape=parallelogram;perimeter=parallelogramPerimeter;whiteSpace=wrap;fixedSize=1;html=1;fillColor=#dae8fc;strokeColor=#6c8ebf;" vertex="1" parent="1">
          <mxGeometry x="660" y="550" width="170" height="60" as="geometry" />
        </mxCell>
        <mxCell id="FS-ftZHQTLlanms4jddn-20" value="" style="edgeStyle=orthogonalEdgeStyle;orthogonalLoop=1;jettySize=auto;html=1;" edge="1" parent="1" source="FS-ftZHQTLlanms4jddn-18" target="FS-ftZHQTLlanms4jddn-1">
          <mxGeometry relative="1" as="geometry" />
        </mxCell>
        <mxCell id="FS-ftZHQTLlanms4jddn-18" value="PPG data &lt;br&gt;with both sitting and talking" style="shape=parallelogram;perimeter=parallelogramPerimeter;whiteSpace=wrap;fixedSize=1;html=1;fillColor=#f8cecc;strokeColor=#b85450;" vertex="1" parent="1">
          <mxGeometry x="660" y="310" width="180" height="60" as="geometry" />
        </mxCell>
        <mxCell id="FS-ftZHQTLlanms4jddn-23" value="" style="edgeStyle=orthogonalEdgeStyle;orthogonalLoop=1;jettySize=auto;html=1;" edge="1" parent="1" source="FS-ftZHQTLlanms4jddn-24" target="FS-ftZHQTLlanms4jddn-1">
          <mxGeometry relative="1" as="geometry">
            <mxPoint x="780" y="200" as="sourcePoint" />
          </mxGeometry>
        </mxCell>
        <mxCell id="FS-ftZHQTLlanms4jddn-24" value="PPG and ACC data &lt;br&gt;with both sitting and talking" style="shape=parallelogram;perimeter=parallelogramPerimeter;fixedSize=1;overflow=visible;whiteSpace=wrap;html=1;fillColor=#ffe6cc;strokeColor=#d79b00;" vertex="1" parent="1">
          <mxGeometry x="525" y="170" width="190" height="60" as="geometry" />
        </mxCell>
        <mxCell id="FS-ftZHQTLlanms4jddn-26" value="&lt;h1&gt;&lt;span&gt;Data cleaning for AF AI-model&lt;/span&gt;&lt;/h1&gt;&lt;h1&gt;&lt;span style=&quot;font-size: 12px ; font-weight: normal&quot;&gt;Different data cleaning strategies to prepare the data for AI-model development&lt;/span&gt;&lt;br&gt;&lt;/h1&gt;" style="text;html=1;strokeColor=none;fillColor=none;spacing=5;spacingTop=-20;whiteSpace=wrap;overflow=hidden;rounded=0;" vertex="1" parent="1">
          <mxGeometry x="60" y="40" width="430" height="120" as="geometry" />
        </mxCell>
        <mxCell id="FS-ftZHQTLlanms4jddn-32" style="edgeStyle=orthogonalEdgeStyle;rounded=0;orthogonalLoop=1;jettySize=auto;html=1;exitX=0;exitY=0.5;exitDx=0;exitDy=0;fontColor=#FFB570;dashed=1;strokeColor=#FFB570;" edge="1" parent="1" source="FS-ftZHQTLlanms4jddn-27" target="FS-ftZHQTLlanms4jddn-30">
          <mxGeometry relative="1" as="geometry" />
        </mxCell>
        <mxCell id="FS-ftZHQTLlanms4jddn-30" value="&lt;font color=&quot;#cc6600&quot;&gt;Pros: Most robust way to handle the PPG data&lt;br&gt;&lt;br&gt;&lt;div&gt;&lt;span&gt;Cons: It will yield a larger AI model&lt;/span&gt;&lt;/div&gt;&lt;/font&gt;" style="text;html=1;strokeColor=none;fillColor=none;align=left;verticalAlign=middle;whiteSpace=wrap;rounded=0;sketch=1;fontColor=#FFB570;" vertex="1" parent="1">
          <mxGeometry x="115" y="150" width="265" height="70" as="geometry" />
        </mxCell>
        <mxCell id="FS-ftZHQTLlanms4jddn-34" style="edgeStyle=orthogonalEdgeStyle;rounded=0;orthogonalLoop=1;jettySize=auto;html=1;exitX=0;exitY=0.5;exitDx=0;exitDy=0;fontColor=#FFB570;dashed=1;strokeColor=#7EA6E0;" edge="1" parent="1" source="FS-ftZHQTLlanms4jddn-35" target="FS-ftZHQTLlanms4jddn-36">
          <mxGeometry relative="1" as="geometry" />
        </mxCell>
        <mxCell id="FS-ftZHQTLlanms4jddn-36" value="Pros: Smaller AI model&lt;br&gt;&lt;br&gt;Cons: May accidently remove a lot of sitting data, since the ACC signal amplitude of sitting and talking is quite close" style="text;html=1;strokeColor=none;fillColor=none;align=left;verticalAlign=middle;whiteSpace=wrap;rounded=0;sketch=1;fontColor=#0066CC;" vertex="1" parent="1">
          <mxGeometry x="90" y="535" width="220" height="90" as="geometry" />
        </mxCell>
        <mxCell id="FS-ftZHQTLlanms4jddn-47" style="edgeStyle=orthogonalEdgeStyle;rounded=0;orthogonalLoop=1;jettySize=auto;html=1;exitX=0.5;exitY=1;exitDx=0;exitDy=0;fontColor=#EA6B66;dashed=1;strokeColor=#EA6B66;" edge="1" parent="1" source="FS-ftZHQTLlanms4jddn-40" target="FS-ftZHQTLlanms4jddn-42">
          <mxGeometry relative="1" as="geometry" />
        </mxCell>
        <mxCell id="FS-ftZHQTLlanms4jddn-40" value="" style="rounded=1;whiteSpace=wrap;html=1;sketch=1;fillColor=none;strokeColor=#EA6B66;" vertex="1" parent="1">
          <mxGeometry x="640" y="290" width="220" height="100" as="geometry" />
        </mxCell>
        <mxCell id="FS-ftZHQTLlanms4jddn-42" value="&lt;font&gt;Pros: Smaller AI model&lt;br&gt;&lt;br&gt;&lt;div&gt;&lt;span&gt;Cons:&amp;nbsp; AI model may have a difficult time to differentiate AF sitting vs NSR talking&lt;/span&gt;&lt;/div&gt;&lt;/font&gt;" style="text;html=1;strokeColor=none;fillColor=none;align=left;verticalAlign=middle;whiteSpace=wrap;rounded=0;sketch=1;fontColor=#EA6B66;" vertex="1" parent="1">
          <mxGeometry x="618.75" y="420" width="262.5" height="70" as="geometry" />
        </mxCell>
      </root>
    </mxGraphModel>
  </diagram>
</mxfile>
